<?xml version="1.0" encoding="UTF-8" standalone="no"?>
<!-- Created with Inkscape (http://www.inkscape.org/) -->
<!-- TODO: This is a temporary svg for the reload icon. It needs to be done more cleanly -->

<svg
   xmlns:dc="http://purl.org/dc/elements/1.1/"
   xmlns:cc="http://creativecommons.org/ns#"
   xmlns:rdf="http://www.w3.org/1999/02/22-rdf-syntax-ns#"
   xmlns:svg="http://www.w3.org/2000/svg"
   xmlns="http://www.w3.org/2000/svg"
   xmlns:sodipodi="http://sodipodi.sourceforge.net/DTD/sodipodi-0.dtd"
   xmlns:inkscape="http://www.inkscape.org/namespaces/inkscape"
   width="744.09448819"
   height="1052.3622047"
   id="svg3783"
   version="1.1"
   inkscape:version="0.48.5 r10040"
   sodipodi:docname="reload_icon.svg">
  <defs
     id="defs3785" />
  <sodipodi:namedview
     id="base"
     pagecolor="#ffffff"
     bordercolor="#666666"
     borderopacity="1.0"
     inkscape:pageopacity="0.0"
     inkscape:pageshadow="2"
     inkscape:zoom="0.35"
     inkscape:cx="-70.714286"
     inkscape:cy="520"
     inkscape:document-units="px"
     inkscape:current-layer="layer1"
     showgrid="true"
     inkscape:window-width="1920"
     inkscape:window-height="1018"
     inkscape:window-x="1912"
     inkscape:window-y="-8"
     inkscape:window-maximized="1">
    <inkscape:grid
       type="xygrid"
       id="grid3791" />
  </sodipodi:namedview>
  <metadata
     id="metadata3788">
    <rdf:RDF>
      <cc:Work
         rdf:about="">
        <dc:format>image/svg+xml</dc:format>
        <dc:type
           rdf:resource="http://purl.org/dc/dcmitype/StillImage" />
        <dc:title></dc:title>
      </cc:Work>
    </rdf:RDF>
  </metadata>
  <g
     inkscape:label="Layer 1"
     inkscape:groupmode="layer"
     id="layer1">
    <rect
       style="fill:#ffffff;fill-opacity:1;stroke:none"
       id="rect4322"
       width="120"
       height="80"
       x="-680"
       y="212.36218" />
    <path
       style="fill:none;fill-opacity:1;stroke:none"
       id="path4363"
       d="m -1155.1326,750.49124 c -16.9239,-0.35718 -33.8534,-0.27228 -50.78,-0.25448 -12.4765,0.0392 -24.9526,0.14182 -37.4288,0.23081 -7.2524,0.0812 -14.5049,0.0172 -21.7575,0.0208 -4.6054,0.007 -9.2109,0.0194 -13.8163,0.029 0,0 34.2468,-24.88178 34.2468,-24.88178 l 0,0 c 4.5788,0.01 9.1576,0.0218 13.7365,0.029 7.2335,0.004 14.4669,-0.0606 21.7003,0.0208 12.2644,0.0892 24.5287,0.19221 36.7934,0.2308 17.1602,0.0181 34.3229,0.0967 51.4805,-0.25447 0,0 -34.1749,24.82954 -34.1749,24.82954 z"
       inkscape:connector-curvature="0" />
    <path
       style="fill:none;stroke:none"
       id="path4365"
       d="m -1316.959,529.58098 c 22.7303,8.68684 46.2374,15.05366 69.6843,21.45605 32.2617,8.70472 64.3193,18.14235 96.4999,27.13402 3.4049,0.88412 6.8098,1.76823 10.2148,2.65235 0,0 -33.9279,23.28141 -33.9279,23.28141 l 0,0 c -3.3154,-0.96943 -6.6307,-1.93886 -9.9461,-2.90828 -31.7831,-9.65458 -63.6007,-19.20725 -95.7662,-27.53053 -23.9906,-6.3086 -47.878,-12.96349 -71.6583,-20.0127 0,0 34.8995,-24.07232 34.8995,-24.07232 z"
       inkscape:connector-curvature="0" />
    <path
       style="fill:none;stroke:none"
       id="path4367"
       d="m -1090.556,610.03854 c 21.593,6.61949 43.3826,12.54869 65.1489,18.56589 33.80364,9.61015 67.17979,20.7553 100.40796,32.19054 24.69822,8.3374 49.53029,16.24111 74.17449,24.74057 13.94177,5.15877 27.98867,10.01611 41.98671,15.00926 10.71856,3.46173 21.0804,7.89149 31.66935,11.69593 11.74226,4.25822 22.99601,9.76023 33.66723,16.24132 13.11888,7.18697 25.05793,16.11855 36.69949,25.44904 10.92379,8.59736 20.69083,18.40322 30.10992,28.58278 5.88293,6.65116 10.99953,13.93506 15.75347,21.42215 3.92119,8.87513 6.59631,18.21434 9.10959,27.56311 3.50905,9.11802 5.59585,18.50893 6.79643,28.17581 0.75647,9.90519 1.21963,19.88137 0.7251,29.81011 -0.47861,10.14851 -4.20986,19.57471 -8.23795,28.75922 -6.94393,12.83506 -14.75316,25.24058 -22.74658,37.45536 -9.26729,12.45581 -19.25312,24.37654 -29.7622,35.7997 -10.55487,11.06187 -21.15005,22.07567 -33.09113,31.64957 -22.77756,18.3604 -48.58996,32.815 -75.03646,45.195 -19.20227,9.4692 -38.06539,12.1561 -59.01154,14.691 -31.21866,3.2457 -62.63794,3.4313 -93.98984,3.7701 -28.33471,-0.2053 -56.46814,-2.4068 -84.02134,-9.1262 -11.409,-2.9529 -21.2181,-8.8692 -26.3133,-19.6823 -2.5036,-6.8106 -2.6452,-14.0732 -2.6186,-21.2361 0.1868,-9.2397 0.1369,-18.4847 0.6783,-27.7115 0.2336,-12.783 3.7353,-24.97816 7.22,-37.16653 3.9398,-11.83094 8.5412,-23.42305 15.0406,-34.08484 5.7527,-8.83917 11.6848,-17.59017 18.4954,-25.65263 6.441,-6.55164 13.1695,-12.81308 20.4166,-18.46333 18.2411,-13.20846 37.83518,-24.43651 59.3846,-30.66112 8.31453,-2.27807 16.94385,-2.76067 25.5144,-3.04062 7.37393,0.16751 14.87776,-0.77186 22.18053,0.42543 5.6243,0.80708 10.86671,3.25065 15.22255,6.85951 3.66957,3.68162 6.83854,7.88577 9.53827,12.32988 2.55232,5.16864 3.86144,10.88302 5.24105,16.46024 1.62901,5.91978 1.52453,11.82523 0.73648,17.84219 -0.69544,4.79713 -3.39463,8.9117 -6.16291,12.78345 -2.36229,3.37019 -5.08287,6.52255 -8.0511,9.37534 -0.46919,0.51652 -0.93838,1.03304 -1.40757,1.54956 0,0 -39.34968,16.12876 -39.34968,16.12876 l 0,0 c 0.51775,-0.39992 1.0355,-0.79984 1.55325,-1.19976 2.49871,-3.17998 5.7098,-5.71963 8.30586,-8.82519 2.33732,-3.71159 5.38225,-7.054 7.08465,-11.09461 0.82157,-5.55566 1.58234,-10.89421 -0.01,-16.43285 -1.20233,-5.16816 -2.49498,-10.42601 -4.63016,-15.27992 -2.45157,-3.97653 -5.30298,-7.84218 -8.78515,-10.96775 -4.14341,-2.88495 -8.76955,-4.65161 -13.84112,-5.03024 -7.20783,-0.45638 -14.44928,-0.11895 -21.66347,0.0253 -8.36667,0.43157 -16.74927,1.25138 -24.76664,3.8433 -4.34682,1.44474 -8.61299,3.00945 -12.81274,4.84621 -1.081,0.47277 -4.224,2.09427 -3.2107,1.48984 3.3158,-1.97794 46.91347,-27.35403 29.10522,-16.98803 -7.49833,5.30983 -14.09378,11.57808 -20.88913,17.73361 -7.18969,7.62505 -12.91319,16.42298 -18.79499,25.06618 -6.9229,10.18561 -11.5975,21.48533 -15.7386,33.05424 -3.4055,11.91504 -7.2217,23.76366 -7.4213,36.27742 -0.6786,9.09149 -0.3056,18.20855 -0.49,27.32055 -0.024,6.5831 -0.2744,13.2949 1.6964,19.6608 4.2579,9.7328 13.6742,14.2739 23.546,16.9834 26.94132,6.8155 54.53586,9.1247 82.30818,9.065 31.51072,-0.4659 63.10092,-0.9451 94.43102,-4.6766 7.35048,-1.0107 15.87125,-2.0365 23.1816,-3.5791 12.34558,-2.6052 24.0633,-7.3239 35.51765,-12.5158 17.92143,-8.7098 8.70083,-4.4874 -20.42661,12.8827 -2.14659,1.2802 4.38656,-2.4025 6.50531,-3.7282 2.02435,-1.2666 10.20729,-6.9784 12.20507,-8.4933 1.93753,-1.4692 3.78704,-3.051 5.68055,-4.5765 12.20195,-9.1657 22.79493,-20.0142 33.32914,-31.0308 10.62906,-11.19947 20.4717,-23.07791 30.06063,-35.17833 8.03738,-11.93395 15.45253,-24.27908 22.72043,-36.68706 3.9948,-8.74752 7.94076,-17.65344 8.72688,-27.36704 0.92168,-9.67094 0.23989,-19.44449 -0.34844,-29.12212 -1.00228,-9.49372 -2.97456,-18.71548 -6.43425,-27.64812 -2.46158,-8.93102 -4.90755,-17.8778 -8.71892,-26.35675 -4.53554,-7.3072 -9.42276,-14.4271 -15.02279,-20.96562 -9.18507,-10.08089 -18.77038,-19.75577 -29.54397,-28.1715 -11.57405,-9.17238 -23.49404,-17.86447 -36.53554,-24.87449 -10.63356,-6.15995 -21.75839,-11.45003 -33.36771,-15.51786 -10.52985,-3.94823 -20.99991,-8.04682 -31.64769,-11.67835 -13.83108,-5.02506 -27.56916,-10.28743 -41.37717,-15.37664 -24.35374,-8.64885 -48.79472,-17.01754 -73.26142,-25.34119 -33.14152,-11.53416 -66.44505,-22.79191 -100.34785,-31.88939 -22.2999,-5.83716 -44.5826,-11.74139 -66.8988,-17.51038 0,0 34.9098,-23.84072 34.9098,-23.84072 z"
       inkscape:connector-curvature="0" />
    <path
       id="path4371"
       style="fill:#cfdde3;stroke:#000000;stroke-width:1.13732755000000000px;stroke-linecap:butt;stroke-linejoin:miter;stroke-opacity:1;fill-opacity:1"
       d="m 450,452.34937 150,0 50,0 -100,82.78488 z M 360,292.36218 c -132.5483,0 -240,107.45167 -240,240 0,132.54834 107.4517,240 240,240 118.91141,0 217.60321,-86.50331 236.65625,-200 l -82.6875,0 C 494.96132,638.3026 433.2235,686.64343 360,686.64343 c -88.3656,0 -160,-70.36865 -160,-157.15625 0,-86.78759 71.6344,-157.125 160,-157.125 59.8276,0 111.98812,32.23989 139.4375,80 l 86.875,0 c -32.94518,-93.2186 -121.81273,-160 -226.3125,-160 z"
       inkscape:connector-curvature="0" />
  </g>
</svg>
